<svg data-v-0dd9719b="" version="1.0" xmlns="http://www.w3.org/2000/svg" xmlns:xlink="http://www.w3.org/1999/xlink" width="100%" height="100%" viewBox="0 0 340.000000 250.000000" preserveAspectRatio="xMidYMid meet" color-interpolation-filters="sRGB" style="margin: auto;"> <rect data-v-0dd9719b="" x="0" y="0" width="100%" height="100%" fill="#fff" fill-opacity="1" class="background"></rect> <rect data-v-0dd9719b="" x="0" y="0" width="100%" height="100%" fill="url(#watermark)" fill-opacity="1" class="watermarklayer"></rect> <g data-v-0dd9719b="" fill="#333" class="icon-text-wrapper icon-svg-group iconsvg" transform="translate(48.30500030517578,95.00180053710938)"><g class="iconsvg-imagesvg" transform="translate(0,0)"><g><rect fill="#333" fill-opacity="0" stroke-width="2" x="0" y="0" width="60" height="59.996400215987045" class="image-rect"></rect> <svg x="0" y="0" width="60" height="59.996400215987045" filtersec="colorsb73647400" class="image-svg-svg primary" style="overflow: visible;"><svg xmlns="http://www.w3.org/2000/svg" viewBox="-0.005915164947509766 -0.0032501220703125 100.00916290283203 100.00305938720703"><path d="M97.79 58.53L87.06 44.81a58.94 58.94 0 0 1-5-7.79L72.32 42l-9.14 27.73 4.92 9.75a60.75 60.75 0 0 1 8.64-3.3l16.78-4.67c6.48-1.81 8.48-7.65 4.27-12.98z" fill="#00d495"></path><path d="M30.27 63.18l-9.76 4.92a58.55 58.55 0 0 1 3.31 8.64l4.67 16.78c1.81 6.52 7.65 8.45 13 4.27l13.7-10.73a58.94 58.94 0 0 1 7.79-5l-4.93-9.75z" fill="#7fe000"></path><path d="M36.82 30.27l-4.93-9.76a57.37 57.37 0 0 1-8.63 3.31L6.48 28.49C0 30.3-2 36.14 2.2 41.47l10.74 13.72a58.94 58.94 0 0 1 5 7.79l9.75-4.93z" fill="#00a2ff"></path><path d="M69.73 36.82l9.75-4.92a60 60 0 0 1-3.3-8.64L71.51 6.48C69.7 0 63.85-2 58.53 2.21L44.81 12.94a58.94 58.94 0 0 1-7.79 5L42 27.68z" fill="#00c0d9"></path></svg></svg> <!----></g></g> <g transform="translate(67,1.9119491577148438)"><g data-gra="path-name" fill-rule="" class="tp-name iconsvg-namesvg" transform="translate(0,0)"><g transform="scale(1)"><g><path d="M42.28-24.79L42.28-21.36 25.27-21.36Q29.53-8.09 38.67-2.07L38.67-2.07Q40.74-0.7 42.98 0.22L42.98 0.22Q41.44 1.67 40.47 3.38L40.47 3.38Q28.3-2.42 22.54-18.9L22.54-18.9Q18.54-3.03 4.57 3.38L4.57 3.38Q3.6 1.71 2.07 0.62L2.07 0.62Q16.13-5.58 19.56-21.36L19.56-21.36 2.99-21.36 2.99-24.79 20.13-24.79Q20.7-28.78 20.79-37.44L20.79-37.44Q20.79-37.53 20.79-37.57L20.79-37.57 24.39-37.57Q24.3-29.44 23.69-24.79L23.69-24.79 42.28-24.79ZM76.38-1.54L72.99-1.54 72.99-9.71 59.33-9.71 59.33-12.92 72.99-12.92 72.99-18.98 66.05-18.98Q62.58-18.98 62.01-18.37L62.01-18.37Q61.79-19.2 60.86-21.53L60.86-21.53Q61.88-21.8 63.33-24.52L63.33-24.52Q63.98-25.58 65.92-30.01L65.92-30.01 59.68-30.01 59.68-33 67.06-33Q68.12-35.82 68.6-37.62L68.6-37.62 72.03-36.69Q71.46-34.85 70.71-33L70.71-33 86.35-33 86.35-30.01 69.48-30.01Q67.54-25.44 65.61-22.15L65.61-22.15 72.99-22.15 72.99-27.6 76.38-27.6 76.38-22.15 85.08-22.15 85.03-18.98 76.38-18.98 76.38-12.92 87.14-12.92 87.14-9.71 76.38-9.71 76.38-1.54ZM57.88-29.18L57.88-29.18 55.11-27.29Q53.17-30.76 49-35.38L49-35.38Q48.91-35.46 48.87-35.51L48.87-35.51 51.42-37.13Q56.03-32.26 57.88-29.18ZM47.15-22.5L56.25-22.5 56.25-5.01Q56.6-4.79 57.44-4.13L57.44-4.13Q58.8-3.12 59.68-2.55L59.68-2.55Q62.93-0.48 69.65-0.35L69.65-0.35Q70.66-0.31 71.81-0.31L71.81-0.31Q80.46-0.31 88.59-1.27L88.59-1.27Q87.67 1.23 87.63 2.46L87.63 2.46Q78 2.99 71.72 2.99L71.72 2.99Q64.12 2.99 60.25 1.19L60.25 1.19Q59.5 0.83 58.8 0.44L58.8 0.44Q58.23 0.04 57.17-0.79L57.17-0.79Q55.15-2.33 54.45-2.37L54.45-2.37Q52.91-2.37 49.44 2.86L49.44 2.86Q49.22 3.21 49 3.56L49 3.56 46.54 0.35Q50.41-4.22 53-5.32L53-5.32 53-19.38 47.15-19.38 47.15-22.5ZM107.45-32.48L107.45-29.31 97.43-29.31Q95.58-25.84 93.69-23.64L93.69-23.64Q93.03-25.27 91.93-26.72L91.93-26.72Q95.41-30.72 97.34-37.53L97.34-37.53 100.37-36.74Q99.76-34.58 98.88-32.48L98.88-32.48 107.45-32.48ZM102.08-12.44L102.08-3.16 107.31-6.11Q107.58-4.48 108.06-3.3L108.06-3.3Q99.58 1.8 98.66 2.77L98.66 2.77Q98.53 2.86 98.48 2.94L98.48 2.94 98.39 2.72 98.39 2.94Q97.82 1.71 96.72 0.62L96.72 0.62Q99.05-1.27 99.1-3.69L99.1-3.69 99.1-12.44 92.99-12.44 92.99-15.47 99.1-15.47 99.1-21.53 95.05-21.53 95.05-24.57 106.35-24.57 106.35-21.53 102.08-21.53 102.08-15.47 107.67-15.47 107.67-12.44 102.08-12.44ZM112.68-13.18L112.68-13.18 115.71-12.48Q113.64-4.75 109.73-0.04L109.73-0.04Q109.64 0.09 109.6 0.13L109.6 0.13Q108.76-0.92 107.36-2.15L107.36-2.15Q110.96-6.24 112.63-12.96L112.63-12.96Q112.68-13.1 112.68-13.18ZM132.36-21.01L132.36-17.93 122.52-17.93 122.52-0.44Q122.52 1.76 121.46 2.46L121.46 2.46Q121.25 2.59 120.98 2.72L120.98 2.72Q119.49 3.38 115.18 3.38L115.18 3.38Q114.92 1.67 114.21 0.26L114.21 0.26Q115.36 0.31 118.56 0.31L118.56 0.31Q119.36 0.09 119.4-0.44L119.4-0.44 119.4-17.93 113.51-17.93Q110.13-17.93 109.47-17.31L109.47-17.31Q109.03-18.94 108.41-20.26L108.41-20.26Q109.12-20.57 109.56-22.9L109.56-22.9Q110.83-29.71 110.65-34.58L110.65-34.58Q122.04-34.89 128.14-36.91L128.14-36.91Q128.72-37.13 129.2-37.31L129.2-37.31 130.74-34.5Q125.11-32.3 113.77-31.86L113.77-31.86Q113.51-26.89 112.32-21.01L112.32-21.01 119.4-21.01 119.4-29.14 122.52-29.14 122.52-21.01 132.36-21.01ZM125.24-12.22L125.24-12.22 127.92-13.27Q131.44-6.99 132.93-1.45L132.93-1.45Q133.02-1.19 133.07-1.01L133.07-1.01 130.17 0.13Q128.94-5.05 125.6-11.56L125.6-11.56Q125.42-11.91 125.24-12.22ZM177.93-6.15L167.39-6.15Q170.68-0.66 178.46 0.88L178.46 0.88Q177.19 2.02 176.44 3.47L176.44 3.47Q168.09 1.23 164.58-5.58L164.58-5.58Q161.67 0.4 151.22 3.56L151.22 3.56Q150.47 2.29 149.24 1.19L149.24 1.19Q158.6-1.36 161.32-6.15L161.32-6.15 151.17-6.15 151.17-8.88 162.29-8.88Q162.55-10.06 162.55-11.65L162.55-11.65 162.55-12.22 153.15-12.22 153.15-14.81 162.55-14.81 162.55-17.93 151.74-17.93 151.74-20.57 157.9-20.57Q157.5-22.19 156.09-25.14L156.09-25.14 158.95-25.88Q160.53-22.81 161.06-20.83L161.06-20.83 160.14-20.57 167.74-20.57Q169.19-23.47 169.98-26.06L169.98-26.06 151.17-26.06 151.17-28.83 159.35-28.83 159.35-37.66 162.42-37.66 162.42-28.83 166.07-28.83 166.07-37.66 169.1-37.66 169.1-28.83 177.5-28.83 177.5-26.06 169.98-26.06 173.19-25.18Q172.62-23.95 170.86-20.57L170.86-20.57 176.88-20.57 176.88-17.93 165.81-17.93 165.81-14.81 175.69-14.81 175.69-12.22 165.81-12.22 165.81-11.65Q165.81-10.06 165.59-8.88L165.59-8.88 177.93-8.88 177.93-6.15ZM137.37-1.36L137.37-1.36 136.71-4.57Q138.16-4.92 142.25-6.15L142.25-6.15 142.25-18.54 137.55-18.54 137.55-21.71 142.25-21.71 142.25-31.46 137.2-31.46 137.2-34.58 149.85-34.58 149.85-31.46 145.24-31.46 145.24-21.71 149.37-21.71 149.37-18.54 145.24-18.54 145.24-7.12 149.72-8.48 150.12-5.41Q147.88-4.66 143.35-3.25L143.35-3.25Q139.13-1.93 137.37-1.36ZM172.92-29.53L172.92-29.53 170.55-30.45Q172.4-33.18 173.85-36.65L173.85-36.65 176.75-35.51Q174.02-30.94 172.92-29.53ZM152.01-35.51L152.01-35.51 154.42-36.47Q156.84-33.18 157.68-30.54L157.68-30.54 155.08-29.4Q154.2-32.26 152.01-35.51Z" transform="translate(-2.069999933242798, 37.65999984741211)"></path></g> <!----> <!----> <!----> <!----> <!----> <!----> <!----></g></g> <g data-gra="path-slogan" fill-rule="" class="tp-slogan iconsvg-slogansvg" fill="#333" transform="translate(40.290000915527344,47.220001220703125)"><!----> <!----> <g transform="scale(1, 1)"><g transform="scale(1)"><path d="M4.41 0L0.94 0L0.94-8.58L4.45-8.58Q7.92-8.39 8.06-4.41L8.06-4.41Q7.88-0.09 4.41 0L4.41 0ZM4.27-7.64L2.11-7.64L2.11-0.98L4.36-0.98Q6.80-1.13 6.89-4.31L6.89-4.31Q6.84-7.55 4.27-7.64L4.27-7.64ZM15.19 0L14.34-2.48L10.88-2.48L9.98 0L8.81 0L12.05-8.58L13.36-8.58L16.45 0L15.19 0ZM12.61-7.31L11.25-3.52L13.92-3.52L12.66-7.31L12.61-7.31ZM17.48-8.58L18.66-8.58L18.66-1.03L23.02-1.03L23.02 0L17.48 0L17.48-8.58ZM24.33-8.58L25.50-8.58L25.50 0L24.33 0L24.33-8.58ZM33.14 0L32.30-2.48L28.83-2.48L27.94 0L26.77 0L30-8.58L31.31-8.58L34.41 0L33.14 0ZM30.56-7.31L29.20-3.52L31.88-3.52L30.61-7.31L30.56-7.31ZM36.84-8.58L41.16-1.64L41.16-8.58L42.28-8.58L42.28 0L40.97 0L36.61-6.94L36.56-6.94L36.56 0L35.44 0L35.44-8.58L36.84-8.58ZM53.67-6.09L53.67-6.09L52.59-6.09Q52.50-7.73 50.44-7.83L50.44-7.83Q48.52-7.78 48.52-6.33L48.52-6.33Q48.52-5.39 49.55-5.25L49.55-5.25L51.98-4.69Q53.91-4.22 53.91-2.34L53.91-2.34Q53.86 0.05 50.53 0.14L50.53 0.14Q48.70 0.14 47.95-0.61L47.95-0.61Q47.02-1.31 47.06-2.77L47.06-2.77L48.19-2.77Q48.23-0.80 50.53-0.75L50.53-0.75Q52.78-0.80 52.83-2.20L52.83-2.20Q53.02-3.38 50.95-3.75L50.95-3.75L49.17-4.13Q47.34-4.64 47.34-6.19L47.34-6.19Q47.48-8.72 50.34-8.81L50.34-8.81Q53.58-8.81 53.67-6.09ZM56.53-5.06L61.03-5.06L61.03-8.58L62.20-8.58L62.20 0L61.03 0L61.03-3.98L56.53-3.98L56.53 0L55.36 0L55.36-8.58L56.53-8.58L56.53-5.06ZM69.66-3.19L69.66-8.58L70.83-8.58L70.83-3.05Q70.69 0.05 67.31 0.14L67.31 0.14Q64.17 0.05 64.03-2.86L64.03-2.86L64.03-8.58L65.20-8.58L65.20-3.19Q65.25-0.84 67.36-0.80L67.36-0.80Q69.66-0.84 69.66-3.19L69.66-3.19ZM79.41-4.27L79.41-4.27Q79.22-7.64 76.41-7.83L76.41-7.83Q73.55-7.69 73.41-4.27L73.41-4.27Q73.55-0.94 76.41-0.80L76.41-0.80Q79.22-0.98 79.41-4.27ZM80.58-4.27L80.58-4.27Q80.30 0 76.41 0.14L76.41 0.14Q72.47 0 72.19-4.27L72.19-4.27Q72.42-8.72 76.41-8.81L76.41-8.81Q80.30-8.67 80.58-4.27ZM85.59-7.64L83.25-7.64L83.25-4.64L85.55-4.64Q87.33-4.64 87.33-6.19L87.33-6.19Q87.33-7.59 85.59-7.64L85.59-7.64ZM85.97-3.61L83.25-3.61L83.25 0L82.08 0L82.08-8.58L85.97-8.58Q88.41-8.48 88.50-6.19L88.50-6.19Q88.36-3.70 85.97-3.61L85.97-3.61ZM95.58-3.19L95.58-8.58L96.75-8.58L96.75-3.05Q96.61 0.05 93.23 0.14L93.23 0.14Q90.09 0.05 89.95-2.86L89.95-2.86L89.95-8.58L91.13-8.58L91.13-3.19Q91.17-0.84 93.28-0.80L93.28-0.80Q95.58-0.84 95.58-3.19L95.58-3.19Z" transform="translate(-0.9375, 8.8125)"></path></g></g></g></g></g><defs v-gra="od"></defs></svg>